<svg xmlns="http://www.w3.org/2000/svg" width="152.994" height="33.836" viewBox="0 0 152.994 33.836">
  <path id="Uniswap_Lockup_Large_Black-1" d="M.632.75c3.821,4.685,8.017,10.57,8.7,11.522l.078.109c.362.505.66.881.887,1.166h0c.5.633.653.821.352.993a1.45,1.45,0,0,1-.742.185,1.263,1.263,0,0,1-.831-.359c-.164-.157-1.283-1.8-2.807-4.188C5.1,8.351,4.122,6.834,4.1,6.809c-.062-.059-.061-.057,2.05,3.758,1.325,2.4,2.232,4.165,2.232,4.278,0,.23-.062.351-.344.668a3.888,3.888,0,0,0-.83,2.351A7.4,7.4,0,0,1,5.235,21.88a7.953,7.953,0,0,0-1.1,1.547,2.875,2.875,0,0,0-.341,1.4,4.389,4.389,0,0,0,.227,1.719,6.181,6.181,0,0,0,.824,1.649,3.842,3.842,0,0,1,.635,1.282c0,.146.028.146.652,0A6.743,6.743,0,0,0,9.526,27.8a1.591,1.591,0,0,0,.525-1.329,1.307,1.307,0,0,0-.121-.727,3.18,3.18,0,0,0-1.213-1.191,2.769,2.769,0,0,1-1.442-1.877,3.28,3.28,0,0,1,.531-2.091,6.379,6.379,0,0,0,.756-2.754c.058-.737.138-1.027.348-1.26a1.3,1.3,0,0,1,.956-.4,3.233,3.233,0,0,0,1.9-.782,1.678,1.678,0,0,0,.594-1.272l.02-.41-.224-.263C11.349,12.492.089,0,.039,0,.029,0,.3.338.632.75ZM5.94,25.571a.729.729,0,0,0-.221-.955c-.29-.194-.739-.1-.739.151,0,.077.042.134.138.183.161.083.172.177.046.369s-.118.365.029.481a.5.5,0,0,0,.747-.229ZM11.454,7.7c-.361-.057-.377-.063-.207-.09a5.559,5.559,0,0,1,1.626.146,7.018,7.018,0,0,1,3.568,2.412l.32.359.457-.074a9.557,9.557,0,0,1,5.524.7,7.128,7.128,0,0,1,1.25.737,1.972,1.972,0,0,1,.115.491,3.084,3.084,0,0,1-.186,1.906.5.5,0,0,0-.051.552.527.527,0,0,0,.472.3c.407,0,.845-.665,1.049-1.591l.081-.367.16.183a7.126,7.126,0,0,1,1.683,3.345l.031.254-.147-.231a2.836,2.836,0,0,0-.835-.886,5.232,5.232,0,0,0-2.857-.615,11.509,11.509,0,0,1-3.164-.482c-1.42-.468-2.136-1.091-3.823-3.326A16.252,16.252,0,0,0,14.846,9.44,5.96,5.96,0,0,0,11.454,7.7ZM24.328,9.918a4.079,4.079,0,0,1,.306-1.505,1.636,1.636,0,0,1,.148-.289.991.991,0,0,1-.069.26,3.453,3.453,0,0,0-.062,1.54c.114.785.179.9,1,1.747.385.4.834.9,1,1.115l.3.392-.3-.28a12.622,12.622,0,0,0-1.376-1.106c-.123-.064-.142-.063-.217.013s-.085.176-.095.676a3.809,3.809,0,0,1-.374,1.779c-.137.27-.159.213-.035-.093a2.454,2.454,0,0,0,.1-1.082c0-1.515-.18-1.879-1.224-2.5-.264-.158-.7-.386-.969-.507a3.674,3.674,0,0,1-.473-.233,10.011,10.011,0,0,1,1.458.43c.61.237.71.268.784.239C24.279,10.493,24.3,10.347,24.328,9.918ZM11.066,8.755a6.216,6.216,0,0,0,1.09,3.755,3.469,3.469,0,0,0,2.1,1.465c.426.039.554-.1.362-.38a7.2,7.2,0,0,1-.684-1.263c-.054-.162-.172-.64-.261-1.062-.306-1.441-.607-2-1.3-2.429a4.166,4.166,0,0,0-1.108-.417L11.1,8.393ZM23.438,20.1c-3.43-1.39-4.638-2.6-4.638-4.643a3.329,3.329,0,0,1,.023-.547,2.593,2.593,0,0,1,.3.22c.7.563,1.474.8,3.63,1.122a14.887,14.887,0,0,1,2.641.559,5.07,5.07,0,0,1,3.7,4.062,6.769,6.769,0,0,1-.108,2.176,4.208,4.208,0,0,1-.558,1.262c-.026.008-.051-.091-.058-.227a2.817,2.817,0,0,0-1.011-1.967A13.814,13.814,0,0,0,23.438,20.1Zm-2.573-.153a6.176,6.176,0,0,1,.166.733,2.992,2.992,0,0,1-2.253,3.5c-.177.055-.873.192-1.547.306a8.871,8.871,0,0,0-2.585.69,4.047,4.047,0,0,0-.928.559.61.61,0,0,0,.22-.053,10.1,10.1,0,0,1,2.935-.484c.518-.027,1.107-.07,1.309-.1a4.105,4.105,0,0,0,2.594-1.148A2.976,2.976,0,0,0,21.5,22.8a2.19,2.19,0,0,0,.121-.939,2.224,2.224,0,0,0-.127-.969,2.96,2.96,0,0,0-.553-1.016l-.163-.184ZM22.6,23.5a4.05,4.05,0,0,1-.311-2.835c.027-.1.07-.173.1-.173a.924.924,0,0,1,.239.131c.21.143.631.383,1.753,1a8.683,8.683,0,0,1,2.741,2.05,4.479,4.479,0,0,1,.911,2.107,7.241,7.241,0,0,1-.086,2.074,5.143,5.143,0,0,1-2.5,3.348,3.209,3.209,0,0,1-.365.183,1.381,1.381,0,0,1,.148-.38,3.452,3.452,0,0,0,.15-2.708,11.547,11.547,0,0,0-1.391-2.516A17.011,17.011,0,0,1,22.6,23.5Zm-8.581,3.25a9.246,9.246,0,0,0-4.3,2.093l-.379.323.333.053a4.624,4.624,0,0,1,3.411,1.771,2.726,2.726,0,0,0,1.5,1.031,1.617,1.617,0,0,0,1.964-.944,1.754,1.754,0,0,0-.036-1.186,1.242,1.242,0,0,0-1.854-.4.644.644,0,0,0,.219,1.137c.116.025.113.019-.03-.046a.471.471,0,0,1-.32-.467.753.753,0,0,1,1.147-.568.829.829,0,0,1,.567.85,1.055,1.055,0,0,1-1.189,1.063,1.743,1.743,0,0,1-.984-.52,1.325,1.325,0,0,1,.443-2.051,2.076,2.076,0,0,1,2.015.185c.71.47,1.012.9,1.624,2.308a10.442,10.442,0,0,0,.569,1.148,2.486,2.486,0,0,0,2.11,1.306,2.533,2.533,0,0,0,1.245-.305,2.713,2.713,0,0,0,.751-.508,1.191,1.191,0,0,0-.3.094,2.577,2.577,0,0,1-2.38-.064,2.356,2.356,0,0,1-.754-1.376c-.024-.108-.1-.586-.179-1.062a5.114,5.114,0,0,0-.787-2.37,3.825,3.825,0,0,0-2.177-1.409A6.636,6.636,0,0,0,14.019,26.75ZM12,17.425a1.565,1.565,0,0,1,.941-1.036,1.828,1.828,0,0,1,1.063.1,1.363,1.363,0,0,1,.778,1.253c-.1.51-.915.919-1.858.926-.482,0-.659-.062-.843-.31A1.49,1.49,0,0,1,12,17.425Zm1.877-.752a.388.388,0,0,1,.165.587.915.915,0,0,1-.637.28c-.34,0-.712-.244-.712-.468,0-.45.713-.69,1.183-.4Zm73.894,1.286c-.769-2.558.5-4.68,3.205-5.362a18.625,18.625,0,0,1,4.892.123c.221.084.317.408.32,1.074a7.3,7.3,0,0,0,.127,1.415c.1.385.043.461-.363.455-.367-.006-.59-.221-.9-.873-.5-1.041-1.1-1.371-2.493-1.375-1.785-.005-3.091,1.2-2.878,2.649.138.945,1.083,1.875,3.2,3.153,2.016,1.216,3.192,2.216,3.661,3.111,1.254,2.4.183,4.958-2.61,6.249a8.418,8.418,0,0,1-5.525.158l-1.082-.367v-1.73c0-1.565.037-1.729.394-1.729.3,0,.427.2.532.815a2.9,2.9,0,0,0,3.092,2.47,3.124,3.124,0,0,0,3.2-2.5,1.9,1.9,0,0,0-.215-1.7c-.442-.909-1.2-1.513-3.786-3a5.787,5.787,0,0,1-2.771-3.036ZM37.13,13.618c-.353,0-.49-.115-.49-.411,0-.391.138-.411,2.9-.411,2.564,0,2.892.039,2.833.333-.037.183-.391.437-.788.565l-.721.232L40.8,19.162a37.579,37.579,0,0,0,.174,6.057c.468,1.629,1.894,2.566,3.907,2.566a4.113,4.113,0,0,0,3.249-1.3c1.106-1.046,1.283-2.04,1.279-7.206,0-5.1-.092-5.516-1.186-5.622-.5-.048-.665-.164-.665-.462,0-.371.164-.4,2.472-.4,2.335,0,2.472.023,2.472.411a.364.364,0,0,1-.361.414c-.954.008-.972.1-1.1,5.686-.133,5.8-.258,6.489-1.434,7.911a6.452,6.452,0,0,1-1.8,1.323,5.543,5.543,0,0,1-3.241.574,6.287,6.287,0,0,1-3.091-.473,5.271,5.271,0,0,1-2.646-2.4c-.416-.768-.451-1.183-.548-6.385C38.178,13.9,38.125,13.618,37.13,13.618Zm19.28,0c-.471,0-.608-.093-.608-.411,0-.385.132-.41,2.112-.394l2.112.017,1.01,1.164c.555.64,2.366,2.642,4.024,4.449s3.561,3.909,4.229,4.671a7.985,7.985,0,0,0,1.4,1.386,32.486,32.486,0,0,0,.118-4.946l-.065-4.946-.578-.5a2.07,2.07,0,0,0-1.082-.5c-.369,0-.5-.112-.5-.416,0-.4.105-.414,2.833-.359,2.319.047,2.833.111,2.833.357,0,.175-.287.358-.689.44a2.31,2.31,0,0,0-.927.378c-.169.169-.255,2.348-.3,7.516L72.273,28.8h-.6c-.514,0-1.126-.578-4.4-4.157-2.09-2.287-4.53-5-5.422-6.039a17.45,17.45,0,0,0-1.776-1.9c-.239-.027-.181,9.22.063,10.1.191.684.322.8,1.132,1.018.653.174.916.35.916.612,0,.336-.249.368-2.885.368-2.683,0-2.885-.027-2.885-.385,0-.262.194-.424.609-.506,1.258-.251,1.342-.649,1.412-6.731a47.39,47.39,0,0,0-.153-6.29A1.674,1.674,0,0,0,56.41,13.618Zm21.6,0c-.441,0-.579-.1-.579-.411,0-.392.137-.411,3.091-.411s3.091.018,3.091.411c0,.3-.138.411-.515.411a1.554,1.554,0,0,0-.935.419c-.408.407-.419.609-.36,6.9.057,6.136.081,6.491.46,6.767a1.75,1.75,0,0,0,.876.291c.338,0,.476.118.476.411,0,.392-.138.411-3.091.411-2.883,0-3.091-.026-3.091-.384,0-.289.2-.417.816-.515,1.219-.194,1.282-.592,1.206-7.69-.061-5.684-.087-6.038-.464-6.313a1.946,1.946,0,0,0-.976-.292Zm21.558,0A.549.549,0,0,1,99,13.207c-.1-.4-.006-.411,2.964-.411,2.934,0,3.071.018,3.071.411,0,.316-.137.411-.593.411-1.3,0-1.268.235.7,5.6,1,2.733,1.969,5.329,2.156,5.769l.339.8,1.574-4.188c1.853-4.929,2.093-5.841,1.779-6.74a2.123,2.123,0,0,0-1.715-1.246c-.182,0-.319-.177-.319-.411,0-.393.138-.411,3.194-.411s3.194.018,3.194.411c0,.292-.137.411-.476.411-.866,0-1.248.46-1.124,1.355a112.288,112.288,0,0,0,3.82,10.667c.242-.241,4.166-10.892,4.166-11.307,0-.5-.349-.714-1.15-.714-.361,0-.5-.113-.5-.411,0-.388.138-.411,2.473-.411,2.1,0,2.472.048,2.472.319,0,.175-.257.408-.571.517-.706.245-.884.525-1.77,2.794l-2.706,6.928c-1.1,2.814-2.046,5.24-2.1,5.389s-.4.273-.757.273h-.652l-1.48-3.85c-.814-2.117-1.776-4.625-2.137-5.574-.619-1.625-.671-1.7-.9-1.232-.136.271-1.114,2.784-2.173,5.584l-1.926,5.091-.719-.061-.719-.061-2.742-7.17a77.2,77.2,0,0,0-3.192-7.648,1.529,1.529,0,0,0-.913-.473Zm41.2.087a1.569,1.569,0,0,1-.034-.358.266.266,0,0,1,.035-.155c.042-.054.057-.055.209-.07h0c.556-.053,1.672-.142,2.6-.183l.283-.013h0c1.025-.047,2.86-.109,4.12-.046,2.419.121,4.14,1.29,4.726,3.223A5.773,5.773,0,0,1,152.2,21a4.827,4.827,0,0,1-4.377,2.084,4.21,4.21,0,0,1-2.732-.675,2.921,2.921,0,0,0-.248-.162v2.464A11.762,11.762,0,0,0,145,27.5c.175.4.572.65,1.344.84a1.465,1.465,0,0,1,.439.169.576.576,0,0,1,.036.555.251.251,0,0,1-.212.074l-3.42-.028-2.062,0s-.216.041-.3-.046a.443.443,0,0,1-.074-.269.522.522,0,0,1,.113-.283,1.694,1.694,0,0,1,.447-.185c.8-.223,1.14-.459,1.32-.9.145-.359.146-1.024.145-6.452,0-5.148-.009-6.108-.127-6.384-.175-.409-.612-.517-1.235-.671h0c-.123-.031-.254-.063-.392-.1,0,0-.217-.032-.251-.11Zm9.958,4.2a3.985,3.985,0,0,1-.913,3.01,4.877,4.877,0,0,1-3.869.841,2.5,2.5,0,0,1-.762-.276l-.017-.009-.307-.162-.018-2.966c-.011-1.858.008-3.069.052-3.242.04-.98,1.485-1.1,2.191-1.065,3.024,0,3.557,2.546,3.646,3.87Zm-19.445-4.994-.371.141-.807.417-.581,1.45c-.319.8-.9,2.262-1.3,3.254-.719,1.807-1.194,2.994-1.694,4.233-.147.364-.591,1.474-.986,2.466s-.791,1.936-.878,2.1l-.046.087c-.221.416-.605,1.137-1.284,1.247a1.094,1.094,0,0,0-.511.173.331.331,0,0,0-.125.248V28.9a.183.183,0,0,0,.091.125.48.48,0,0,0,.184.044l2.481-.028h2.565s.181.021.251-.037a.29.29,0,0,0,.089-.144v-.181a.522.522,0,0,0-.137-.273,1.7,1.7,0,0,0-.482-.129,1.219,1.219,0,0,1-1.077-1.61c.062-.343.475-1.612.94-2.89l.161-.442,2.687-.021c1.478-.011,2.754,0,2.836.017.117.029.28.361.759,1.542.727,1.79.785,2.008.624,2.342l-.032.067A1.486,1.486,0,0,1,133.46,28.3s-.392.014-.489.131a.343.343,0,0,0-.076.252v.179a.339.339,0,0,0,.076.147.2.2,0,0,0,.135.031l2.439-.018h3.429s.135.014.171-.037a.28.28,0,0,0,.044-.113v-.238a.4.4,0,0,0-.081-.2,1.887,1.887,0,0,0-.511-.143,1.6,1.6,0,0,1-1.061-.91,2.646,2.646,0,0,0-.151-.236,11.818,11.818,0,0,1-.72-1.564L135.3,22.063l-1.488-3.828c-.339-.871-.982-2.527-1.43-3.681l-.2-.512h0c-.3-.775-.421-1.088-.455-1.13-.109-.137-.443,0-.443,0Zm-.16,4.716c-.108-.263-.3-.735-.423-1.049-.226-.57-.312-.7-.382-.584-.02.034-.163.424-.316.866-.994,2.862-1.445,4.151-1.535,4.394a1.848,1.848,0,0,0-.1.35,13.729,13.729,0,0,0,2.2.072c1.207,0,2.2-.015,2.2-.033s-.108-.291-.239-.607-.454-1.1-.716-1.752-.568-1.393-.676-1.656Z" transform="translate(-0.039)" fill="#fff" fill-rule="evenodd"/>
</svg>
